# xmcd CD database file
#
# Track frame offsets:
#	150
#	49547
#	74665
#	117525
#	145837
#	164642
#	205847
#	237495
#	260625
#	280457
#
# Disc length: 4164 seconds
#
# Revision: 0
# Processed by: cddbd v1.5.1PL2 Copyright (c) Steve Scherf et al.
# Submitted via: CDex 1.51
#
DISCID=a510420a
DTITLE=Jacques Vidal - Ramblin'
DYEAR=1999
DGENRE=Jazz
TTITLE0=Mr PM
TTITLE1=Goodbye Pork Pie Hat
TTITLE2=Twice A Week
TTITLE3=Little Waltz
TTITLE4=Cheryl
TTITLE5=Ramblin'
TTITLE6=Stella By Starlight
TTITLE7=Falling Grace
TTITLE8=The Face Of The Bass
TTITLE9=Yesterdays
EXTD=YEAR: 1999
EXTT0=
EXTT1=
EXTT2=
EXTT3=
EXTT4=
EXTT5=
EXTT6=
EXTT7=
EXTT8=
EXTT9=
PLAYORDER=
